<mxfile host="app.diagrams.net" modified="2023-03-22T08:13:51.348Z" agent="5.0 (Windows NT 10.0; Win64; x64) AppleWebKit/537.36 (KHTML, like Gecko) Chrome/111.0.0.0 Safari/537.36" etag="5l-uh7Jq2BIXVA5XAFTc" version="21.0.10" type="github">
  <diagram name="第 1 页" id="3-SUeZkcfyi8ByIT2AFu">
    <mxGraphModel dx="604" dy="455" grid="1" gridSize="10" guides="1" tooltips="1" connect="1" arrows="1" fold="1" page="1" pageScale="1" pageWidth="827" pageHeight="1169" math="0" shadow="0">
      <root>
        <mxCell id="0" />
        <mxCell id="1" parent="0" />
        <mxCell id="V4gRC6BpEOIOtsxmWDw4-3" style="edgeStyle=orthogonalEdgeStyle;rounded=0;orthogonalLoop=1;jettySize=auto;html=1;exitX=0.5;exitY=1;exitDx=0;exitDy=0;exitPerimeter=0;" edge="1" parent="1" source="V4gRC6BpEOIOtsxmWDw4-1" target="V4gRC6BpEOIOtsxmWDw4-2">
          <mxGeometry relative="1" as="geometry" />
        </mxCell>
        <mxCell id="V4gRC6BpEOIOtsxmWDw4-1" value="开始" style="strokeWidth=2;html=1;shape=mxgraph.flowchart.start_2;whiteSpace=wrap;" vertex="1" parent="1">
          <mxGeometry x="245" y="100" width="80" height="40" as="geometry" />
        </mxCell>
        <mxCell id="V4gRC6BpEOIOtsxmWDw4-5" style="edgeStyle=orthogonalEdgeStyle;rounded=0;orthogonalLoop=1;jettySize=auto;html=1;exitX=0.5;exitY=1;exitDx=0;exitDy=0;entryX=0.5;entryY=0;entryDx=0;entryDy=0;entryPerimeter=0;" edge="1" parent="1" source="V4gRC6BpEOIOtsxmWDw4-2" target="V4gRC6BpEOIOtsxmWDw4-4">
          <mxGeometry relative="1" as="geometry" />
        </mxCell>
        <mxCell id="V4gRC6BpEOIOtsxmWDw4-2" value="用户填写表单，发送到服务器" style="rounded=1;whiteSpace=wrap;html=1;absoluteArcSize=1;arcSize=14;strokeWidth=2;" vertex="1" parent="1">
          <mxGeometry x="150" y="160" width="270" height="50" as="geometry" />
        </mxCell>
        <mxCell id="V4gRC6BpEOIOtsxmWDw4-18" style="edgeStyle=orthogonalEdgeStyle;rounded=0;orthogonalLoop=1;jettySize=auto;html=1;exitX=1;exitY=0.5;exitDx=0;exitDy=0;exitPerimeter=0;entryX=1;entryY=0.5;entryDx=0;entryDy=0;" edge="1" parent="1" source="V4gRC6BpEOIOtsxmWDw4-4" target="V4gRC6BpEOIOtsxmWDw4-2">
          <mxGeometry relative="1" as="geometry" />
        </mxCell>
        <mxCell id="V4gRC6BpEOIOtsxmWDw4-19" value="否" style="edgeLabel;html=1;align=center;verticalAlign=middle;resizable=0;points=[];" vertex="1" connectable="0" parent="V4gRC6BpEOIOtsxmWDw4-18">
          <mxGeometry x="-0.1665" relative="1" as="geometry">
            <mxPoint as="offset" />
          </mxGeometry>
        </mxCell>
        <mxCell id="V4gRC6BpEOIOtsxmWDw4-22" value="是" style="edgeStyle=orthogonalEdgeStyle;rounded=0;orthogonalLoop=1;jettySize=auto;html=1;exitX=0.5;exitY=1;exitDx=0;exitDy=0;exitPerimeter=0;entryX=0.5;entryY=0;entryDx=0;entryDy=0;" edge="1" parent="1" source="V4gRC6BpEOIOtsxmWDw4-4" target="V4gRC6BpEOIOtsxmWDw4-7">
          <mxGeometry relative="1" as="geometry" />
        </mxCell>
        <mxCell id="V4gRC6BpEOIOtsxmWDw4-4" value="服务器校验是否合法" style="strokeWidth=2;html=1;shape=mxgraph.flowchart.decision;whiteSpace=wrap;" vertex="1" parent="1">
          <mxGeometry x="160" y="230" width="250" height="60" as="geometry" />
        </mxCell>
        <mxCell id="V4gRC6BpEOIOtsxmWDw4-11" style="edgeStyle=orthogonalEdgeStyle;rounded=0;orthogonalLoop=1;jettySize=auto;html=1;exitX=0.5;exitY=1;exitDx=0;exitDy=0;entryX=0.5;entryY=0;entryDx=0;entryDy=0;" edge="1" parent="1" source="V4gRC6BpEOIOtsxmWDw4-7" target="V4gRC6BpEOIOtsxmWDw4-10">
          <mxGeometry relative="1" as="geometry" />
        </mxCell>
        <mxCell id="V4gRC6BpEOIOtsxmWDw4-7" value="生成公钥私钥对，生成电子身份" style="rounded=1;whiteSpace=wrap;html=1;absoluteArcSize=1;arcSize=14;strokeWidth=2;" vertex="1" parent="1">
          <mxGeometry x="160" y="310" width="260" height="50" as="geometry" />
        </mxCell>
        <mxCell id="V4gRC6BpEOIOtsxmWDw4-20" value="是" style="edgeStyle=orthogonalEdgeStyle;rounded=0;orthogonalLoop=1;jettySize=auto;html=1;exitX=0.5;exitY=1;exitDx=0;exitDy=0;exitPerimeter=0;entryX=0.5;entryY=0;entryDx=0;entryDy=0;" edge="1" parent="1" source="V4gRC6BpEOIOtsxmWDw4-9" target="V4gRC6BpEOIOtsxmWDw4-13">
          <mxGeometry relative="1" as="geometry" />
        </mxCell>
        <mxCell id="V4gRC6BpEOIOtsxmWDw4-21" value="f否" style="edgeStyle=orthogonalEdgeStyle;rounded=0;orthogonalLoop=1;jettySize=auto;html=1;exitX=1;exitY=0.5;exitDx=0;exitDy=0;exitPerimeter=0;entryX=1;entryY=0.5;entryDx=0;entryDy=0;" edge="1" parent="1" source="V4gRC6BpEOIOtsxmWDw4-9" target="V4gRC6BpEOIOtsxmWDw4-7">
          <mxGeometry relative="1" as="geometry" />
        </mxCell>
        <mxCell id="V4gRC6BpEOIOtsxmWDw4-9" value="电子身份证号是否唯一" style="strokeWidth=2;html=1;shape=mxgraph.flowchart.decision;whiteSpace=wrap;" vertex="1" parent="1">
          <mxGeometry x="150" y="450" width="290" height="60" as="geometry" />
        </mxCell>
        <mxCell id="V4gRC6BpEOIOtsxmWDw4-12" style="edgeStyle=orthogonalEdgeStyle;rounded=0;orthogonalLoop=1;jettySize=auto;html=1;exitX=0.5;exitY=1;exitDx=0;exitDy=0;" edge="1" parent="1" source="V4gRC6BpEOIOtsxmWDw4-10" target="V4gRC6BpEOIOtsxmWDw4-9">
          <mxGeometry relative="1" as="geometry" />
        </mxCell>
        <mxCell id="V4gRC6BpEOIOtsxmWDw4-10" value="调用注册链码" style="rounded=1;whiteSpace=wrap;html=1;absoluteArcSize=1;arcSize=14;strokeWidth=2;" vertex="1" parent="1">
          <mxGeometry x="150" y="390" width="290" height="30" as="geometry" />
        </mxCell>
        <mxCell id="V4gRC6BpEOIOtsxmWDw4-23" style="edgeStyle=orthogonalEdgeStyle;rounded=0;orthogonalLoop=1;jettySize=auto;html=1;exitX=0.5;exitY=1;exitDx=0;exitDy=0;entryX=0.5;entryY=0;entryDx=0;entryDy=0;" edge="1" parent="1" source="V4gRC6BpEOIOtsxmWDw4-13" target="V4gRC6BpEOIOtsxmWDw4-14">
          <mxGeometry relative="1" as="geometry" />
        </mxCell>
        <mxCell id="V4gRC6BpEOIOtsxmWDw4-25" value="" style="edgeStyle=orthogonalEdgeStyle;rounded=0;orthogonalLoop=1;jettySize=auto;html=1;" edge="1" parent="1" source="V4gRC6BpEOIOtsxmWDw4-13" target="V4gRC6BpEOIOtsxmWDw4-15">
          <mxGeometry relative="1" as="geometry" />
        </mxCell>
        <mxCell id="V4gRC6BpEOIOtsxmWDw4-13" value="将用户身份信息存取区块链网络" style="rounded=1;whiteSpace=wrap;html=1;absoluteArcSize=1;arcSize=14;strokeWidth=2;" vertex="1" parent="1">
          <mxGeometry x="140" y="535" width="310" height="50" as="geometry" />
        </mxCell>
        <mxCell id="V4gRC6BpEOIOtsxmWDw4-24" style="edgeStyle=orthogonalEdgeStyle;rounded=0;orthogonalLoop=1;jettySize=auto;html=1;exitX=0.5;exitY=1;exitDx=0;exitDy=0;" edge="1" parent="1" source="V4gRC6BpEOIOtsxmWDw4-14" target="V4gRC6BpEOIOtsxmWDw4-15">
          <mxGeometry relative="1" as="geometry" />
        </mxCell>
        <mxCell id="V4gRC6BpEOIOtsxmWDw4-14" value="返回用户电子身份证号及私钥" style="rounded=1;whiteSpace=wrap;html=1;absoluteArcSize=1;arcSize=14;strokeWidth=2;" vertex="1" parent="1">
          <mxGeometry x="140" y="620" width="310" height="50" as="geometry" />
        </mxCell>
        <mxCell id="V4gRC6BpEOIOtsxmWDw4-15" value="结束" style="strokeWidth=2;html=1;shape=mxgraph.flowchart.terminator;whiteSpace=wrap;" vertex="1" parent="1">
          <mxGeometry x="250" y="690" width="90" height="30" as="geometry" />
        </mxCell>
      </root>
    </mxGraphModel>
  </diagram>
</mxfile>
